PathFileType  4	(X/Y/Z) C:\Users\antoi\Documents\MyRepositories\mobilecap\ResultsAnalysis
DataRate	CameraRate	NumFrames	NumMarkers	Units	OrigDataRate	OrigDataStartFrame	OrigNumFrames
100.0	100.0	7	51	mm	100.0	801	1281
Frame#	Time	r_knee			r_shank_antsup			r_ankle			r_calc			r_5meta			r_toe			L_knee			L_shank_antsup			L_ankle			L_calc			L_5meta			L_toe			r_sh2			r_sh3			r_sh4			L_sh2			L_sh3			r_thigh1			r_thigh2			r_thigh3			r_thigh4			r_thigh5			L_thigh1			L_thigh2			L_thigh3			L_thigh4			r.ASIS			r.PSIS			L.ASIS			L.PSIS			C7			R_Shoulder			L_Shoulder			R_Sternum			L_Sternum			R_humerus			R_elbow_med			R_elbow_lat			R_forearm			R_wrist_radius			R_wrist_ulna			L_humerus			L_elbow_med			L_elbow_lat			L_forearm			L_wrist_radius			L_wrist_ulna			R_HJC			L_HJC			R_HJC_reg			L_HJC_reg			
		X1	Y1	Z1	X2	Y2	Z2	X3	Y3	Z3	X4	Y4	Z4	X5	Y5	Z5	X6	Y6	Z6	X7	Y7	Z7	X8	Y8	Z8	X9	Y9	Z9	X10	Y10	Z10	X11	Y11	Z11	X12	Y12	Z12	X13	Y13	Z13	X14	Y14	Z14	X15	Y15	Z15	X16	Y16	Z16	X17	Y17	Z17	X18	Y18	Z18	X19	Y19	Z19	X20	Y20	Z20	X21	Y21	Z21	X22	Y22	Z22	X23	Y23	Z23	X24	Y24	Z24	X25	Y25	Z25	X26	Y26	Z26	X27	Y27	Z27	X28	Y28	Z28	X29	Y29	Z29	X30	Y30	Z30	X31	Y31	Z31	X32	Y32	Z32	X33	Y33	Z33	X34	Y34	Z34	X35	Y35	Z35	X36	Y36	Z36	X37	Y37	Z37	X38	Y38	Z38	X39	Y39	Z39	X40	Y40	Z40	X41	Y41	Z41	X42	Y42	Z42	X43	Y43	Z43	X44	Y44	Z44	X45	Y45	Z45	X46	Y46	Z46	X47	Y47	Z47	X48	Y48	Z48	X49	Y49	Z49	X50	Y50	Z50	X51	Y51	Z51	

801	8.00000000	-203.30114	505.65891	-371.29853	-169.52672	459.60985	-367.56298	-255.08626	98.44662	-360.16050	-307.47984	58.54256	-413.05368	-139.71039	39.91342	-302.81993	-91.61348	60.87384	-351.41578	-194.07382	504.46780	-786.92144	-176.44862	423.61864	-809.30428	-239.56782	100.82750	-798.97297	-295.57692	57.32826	-748.56325	-123.50938	41.02887	-840.43329	-76.52511	58.12044	-787.61267	-177.40153	345.78874	-365.99178	-242.97743	464.72026	-342.99755	-251.13287	349.32470	-328.38667	-263.65341	439.30160	-810.09910	-271.62260	317.35053	-820.41033	-74.13808	785.67654	-445.90706	-79.40455	676.88164	-423.24564	-112.50002	665.68331	-366.01121	-151.63130	803.11339	-368.28781	-160.84595	689.15582	-351.92124	-122.72780	821.25397	-764.57653	-137.06707	683.91965	-796.00777	-233.76161	829.43112	-754.29332	-246.50016	688.06251	-756.11670	-84.19772	964.73339	-441.37839	-268.78838	996.09804	-527.84902	-74.92390	954.78703	-684.06916	-268.19665	996.52668	-626.33508	-232.77002	1454.04780	-588.20414	-162.20141	1430.05218	-416.41698	-161.77159	1413.46741	-746.97327	-111.54459	1376.88252	-562.13646	-108.03079	1373.21473	-599.98515	-212.78126	1214.94255	-306.18150	-290.05470	1123.50787	-326.77529	-246.90757	1134.52467	-270.52967	-117.21782	1091.15261	-316.45850	-34.54932	1086.07310	-370.68546	-40.65543	1042.95523	-359.66981	-218.39992	1196.45038	-840.26653	-274.50395	1087.01288	-795.14826	-255.44058	1097.16802	-861.37862	-116.55845	1048.48584	-834.33600	-22.57453	1037.37535	-789.97458	-32.37815	993.50011	-796.48451	-156.01564	882.00863	-481.42709	-160.34932	885.43823	-672.01842	-149.36645	885.99200	-475.94844	-148.40225	886.69032	-636.37107	
802	8.01000000	-203.16017	505.62937	-371.25930	-169.29965	459.50500	-367.62771	-255.08997	98.44817	-360.15906	-307.50674	58.60043	-412.99764	-139.69742	39.90493	-302.82300	-91.62631	60.87353	-351.44134	-193.80417	504.37773	-786.71851	-175.97870	423.56467	-809.26863	-239.53879	100.87616	-799.00018	-295.55753	57.35606	-748.53376	-123.49689	41.04608	-840.42976	-76.52464	58.12208	-787.59597	-177.19349	345.69355	-365.90144	-242.88327	464.61063	-343.05350	-250.88754	349.21268	-328.41124	-263.17390	439.25800	-809.95608	-271.17469	317.32755	-820.44730	-74.68406	785.79338	-445.94975	-79.80423	677.02305	-423.37557	-112.86122	665.70052	-366.16772	-152.22217	803.13257	-368.28476	-161.25906	689.10726	-351.97938	-123.23812	821.39530	-764.64917	-137.34632	683.95648	-795.92607	-234.43634	829.27667	-754.84657	-246.77796	687.82263	-756.35354	-85.00108	964.77267	-441.35425	-269.64511	996.31339	-527.73290	-75.84109	954.88162	-684.06031	-269.01913	996.71553	-626.47373	-232.56494	1454.30819	-588.21858	-161.96078	1430.07608	-416.46888	-161.36786	1413.28678	-747.10888	-111.46393	1376.92783	-562.22819	-107.93733	1373.20486	-600.01403	-212.30479	1214.88497	-306.07796	-289.48727	1123.28662	-326.69130	-246.23691	1134.30274	-270.62940	-116.48186	1091.57534	-316.52446	-33.80907	1086.81021	-370.77886	-39.75834	1043.64110	-359.79881	-217.67736	1196.01309	-840.33725	-273.16668	1086.36828	-795.01922	-254.39944	1096.69275	-861.38629	-115.14325	1048.76735	-834.99673	-20.92572	1038.24611	-790.79146	-30.50656	994.27942	-797.16106	-156.92710	882.11897	-481.43823	-161.27290	885.57621	-672.02876	-150.32996	886.14914	-475.93157	-149.31281	886.80237	-636.35999	
803	8.02000000	-202.97856	505.58217	-371.15292	-169.02745	459.37792	-367.67545	-255.08570	98.45506	-360.15611	-307.55519	58.70228	-412.90394	-139.69522	39.90751	-302.82952	-91.64557	60.86441	-351.48942	-193.45123	504.31457	-786.52519	-175.38454	423.61294	-809.34943	-239.49750	100.92803	-799.02815	-295.53369	57.39668	-748.51462	-123.48850	41.06847	-840.41753	-76.50380	58.13380	-787.59191	-176.89429	345.66387	-365.86481	-242.76251	464.49807	-343.06832	-250.64263	349.13914	-328.38191	-262.58339	439.19878	-809.76716	-270.68703	317.28800	-820.35058	-75.31206	785.91384	-446.03420	-80.19864	677.17581	-423.51849	-113.11285	665.87453	-366.06311	-152.89550	803.22642	-368.11000	-161.60967	689.07989	-351.92114	-123.88550	821.56657	-764.67180	-137.63018	683.94389	-795.85909	-235.28297	829.09763	-755.37836	-247.11447	687.60511	-756.64827	-85.81002	964.77938	-441.35651	-270.57287	996.54300	-527.74122	-76.85465	955.15005	-684.22708	-269.96270	996.96459	-626.48780	-232.32751	1454.62468	-588.31447	-161.68580	1430.11846	-416.56836	-161.11441	1413.15654	-747.28773	-111.38978	1376.98256	-562.29454	-107.89131	1373.22560	-600.07690	-211.75327	1214.69341	-305.95001	-288.84335	1123.07240	-326.53978	-245.50715	1134.12334	-270.58184	-115.64139	1092.01335	-316.54584	-32.98022	1087.68462	-370.74833	-38.68828	1044.35216	-359.82069	-216.76490	1195.56730	-840.43707	-271.47166	1085.59932	-795.14419	-253.05635	1096.15230	-861.61424	-113.41808	1049.11736	-835.72020	-18.95838	1039.15558	-791.61303	-28.27181	995.11649	-797.91847	-157.85078	882.21688	-481.58448	-162.28592	885.85411	-672.16952	-151.31591	886.29603	-475.97149	-150.32415	886.98145	-636.49643	
804	8.03000000	-202.76429	505.49800	-371.07375	-168.65300	459.25464	-367.64405	-255.06203	98.46088	-360.16150	-307.55883	58.70779	-412.90698	-139.70076	39.92224	-302.83077	-91.65158	60.86759	-351.51182	-193.01181	504.22358	-786.31139	-174.70000	423.63337	-809.43134	-239.44526	100.98306	-799.06535	-295.50271	57.45068	-748.49914	-123.48024	41.09136	-840.39946	-76.48255	58.15866	-787.58760	-176.60157	345.44675	-365.78545	-242.36431	464.24980	-343.09935	-250.64670	349.13699	-328.41267	-261.95819	439.16594	-809.53886	-270.13838	317.26960	-820.37812	-76.05218	786.05523	-446.27851	-80.53617	677.35106	-423.53951	-113.36318	666.09578	-365.91945	-153.49886	803.34749	-367.96592	-161.89649	689.10646	-351.82284	-124.72421	821.73591	-764.68508	-137.92909	683.96135	-795.89835	-236.21830	828.89040	-755.79835	-247.52218	687.39630	-756.93412	-86.75444	964.76014	-441.42940	-271.50279	996.78627	-527.82830	-77.83331	955.35077	-684.31898	-271.02204	997.22429	-626.36434	-232.04499	1454.98083	-588.45321	-161.43315	1430.18293	-416.66955	-160.94979	1413.12675	-747.43212	-111.32295	1377.03119	-562.33235	-107.90451	1373.28200	-600.18744	-211.09859	1214.43602	-305.83289	-287.95472	1122.67161	-326.50511	-244.70883	1133.96209	-270.38478	-114.64941	1092.48115	-316.38330	-31.96099	1088.66411	-370.60220	-37.42001	1045.28678	-359.46728	-215.64938	1195.12899	-840.60073	-269.47965	1084.78849	-795.57786	-251.31576	1095.57821	-861.89300	-111.29659	1049.54356	-836.37547	-16.64705	1040.15809	-792.55077	-25.67451	996.02516	-798.78355	-158.86865	882.30106	-481.70309	-163.36511	886.10117	-672.28353	-152.28081	886.46876	-475.97296	-151.49795	887.18244	-636.50478	
805	8.04000000	-202.46677	505.39535	-371.03238	-168.18955	459.12169	-367.59082	-255.02846	98.43857	-360.16309	-307.53354	58.64380	-412.96919	-139.70474	39.92714	-302.82789	-91.65242	60.88876	-351.50686	-192.51560	504.04490	-786.04531	-174.02737	423.52817	-809.38105	-239.39266	101.01796	-799.07468	-295.45677	57.49188	-748.45913	-123.47022	41.11307	-840.38205	-76.46635	58.18398	-787.57884	-176.30167	344.98840	-365.60504	-241.74338	463.94676	-343.22405	-250.86451	349.13364	-328.56063	-261.32580	439.13931	-809.27360	-269.65589	317.29939	-820.46774	-76.85672	786.24378	-446.57378	-80.88636	677.56140	-423.48245	-113.64950	666.29391	-365.84933	-154.10690	803.42536	-367.99839	-162.11812	689.18532	-351.72433	-125.70443	821.92634	-764.76705	-138.28599	684.02827	-795.94042	-237.21074	828.69989	-756.13107	-247.99711	687.19681	-757.18369	-87.95908	964.85572	-441.26436	-272.49140	997.08808	-527.81635	-78.92218	955.26789	-684.11933	-272.14801	997.53481	-626.11257	-231.72322	1455.33176	-588.44778	-161.15950	1430.24109	-416.80978	-160.88376	1413.16284	-747.46168	-111.28817	1377.06842	-562.41226	-107.93374	1373.33826	-600.32263	-210.27716	1214.24337	-305.67166	-286.75034	1122.08825	-326.47538	-243.72219	1133.71607	-270.13668	-113.46932	1092.98826	-316.11795	-30.73018	1089.65358	-370.46306	-35.91182	1046.38926	-358.80888	-214.31198	1194.71067	-840.90957	-267.22412	1083.98309	-796.17934	-249.07390	1094.99605	-862.19954	-108.69889	1050.02259	-837.00883	-14.01100	1041.21221	-793.46159	-22.74218	997.05124	-799.71312	-160.14847	882.47716	-481.48878	-164.59722	886.17885	-672.07214	-153.39715	886.56469	-475.70884	-152.83634	887.29415	-636.22639	
806	8.05000000	-201.98986	505.31571	-370.98469	-167.71802	458.94532	-367.51985	-255.00216	98.39940	-360.14708	-307.54362	58.63650	-412.96469	-139.69959	39.92063	-302.83290	-91.66298	60.90861	-351.50155	-191.97742	503.82040	-785.72315	-173.39363	423.37017	-809.24950	-239.34241	101.03639	-799.06934	-295.42138	57.49727	-748.40955	-123.45988	41.12699	-840.37350	-76.44674	58.19676	-787.57407	-175.90557	344.63376	-365.48326	-241.17441	463.83947	-343.29421	-250.72264	349.07926	-328.55253	-260.63390	439.10665	-809.04977	-269.22728	317.32825	-820.43202	-77.68482	786.49970	-446.75363	-81.40152	677.82451	-423.59611	-113.91257	666.47305	-365.84438	-154.80456	803.43494	-368.05568	-162.30518	689.26286	-351.61714	-126.81067	822.11545	-764.84395	-138.73374	684.12656	-795.93936	-238.33755	828.48573	-756.33706	-248.55119	686.95074	-757.30949	-89.26771	965.06121	-440.85713	-273.65267	997.45959	-527.65017	-80.18129	955.13279	-683.81422	-273.34609	997.95987	-625.83524	-231.38451	1455.66257	-588.25878	-160.76062	1430.24005	-417.07246	-161.03609	1413.15897	-747.38108	-111.26667	1377.09139	-562.54092	-107.92912	1373.38340	-600.40487	-209.24617	1214.09494	-305.46817	-285.38190	1121.50583	-326.23001	-242.46667	1133.41085	-269.87568	-112.07668	1093.51762	-315.93276	-29.32113	1090.63258	-370.36169	-34.16292	1047.42394	-358.37650	-212.70448	1194.42888	-841.38810	-264.63817	1083.23288	-796.89462	-246.37168	1094.47200	-862.72198	-105.72126	1050.49731	-837.62170	-11.04508	1042.25068	-794.10286	-19.50641	998.15398	-800.52995	-161.60650	882.75289	-481.09049	-165.98157	886.25878	-671.67951	-154.70643	886.57029	-475.32881	-154.20476	887.38857	-635.92327	
807	8.06000000	-201.35926	505.24240	-370.91356	-167.16648	458.73231	-367.35543	-254.97192	98.37465	-360.12144	-307.57842	58.65322	-412.92528	-139.68882	39.92562	-302.83895	-91.68039	60.91519	-351.51224	-191.38613	503.65356	-785.43648	-172.74052	423.21622	-809.15279	-239.28758	101.05082	-799.07727	-295.43464	57.48969	-748.40362	-123.45099	41.12986	-840.38079	-76.43280	58.18862	-787.57206	-175.39837	344.62839	-365.45018	-240.54288	463.90184	-343.06044	-249.89049	349.08252	-328.13644	-259.86003	439.09038	-808.91819	-268.75839	317.36174	-820.27470	-78.58878	786.81894	-446.84211	-82.07791	678.07542	-424.03167	-114.11905	666.62826	-365.92313	-155.46236	803.41370	-368.00015	-162.53720	689.25145	-351.57536	-128.07968	822.21251	-764.80741	-139.29251	684.23009	-795.96316	-239.61387	828.18483	-756.39162	-249.18339	686.55936	-757.21323	-90.42623	965.15803	-440.73987	-274.95713	997.86776	-527.46225	-81.63909	955.14477	-683.91010	-274.66555	998.44955	-625.61324	-231.04849	1455.96402	-588.04754	-160.23453	1430.18415	-417.41167	-161.04848	1413.33858	-747.36447	-111.19924	1377.09236	-562.65746	-107.88885	1373.41664	-600.42802	-207.98823	1213.85742	-305.33066	-283.92071	1120.99289	-325.82124	-240.98068	1133.11179	-269.58783	-110.45144	1093.98828	-315.92297	-27.66754	1091.64721	-370.29763	-32.19094	1048.36064	-358.42785	-210.76756	1194.34638	-841.90212	-261.66033	1082.58139	-797.84526	-243.33023	1094.12877	-863.63253	-102.49640	1051.03287	-838.23948	-7.78357	1043.36248	-794.55649	-15.99562	999.26518	-801.10822	-163.01908	882.97616	-480.99315	-167.58715	886.47553	-671.57767	-156.11102	886.57329	-475.30088	-155.63369	887.52605	-636.03013	
